<?xml version="1.0" encoding="utf-8"?>
<!-- Generator: Adobe Illustrator 24.2.1, SVG Export Plug-In . SVG Version: 6.00 Build 0)  -->
<svg version="1.1" id="圖層_1" xmlns="http://www.w3.org/2000/svg" xmlns:xlink="http://www.w3.org/1999/xlink" x="0px" y="0px"
	 viewBox="0 0 34 34" style="enable-background:new 0 0 34 34;" xml:space="preserve">
<path d="M34,27.9c0,3.4-2.8,6.2-6.2,6.1H6.1C2.7,34,0,31.2,0,27.8V6.1C0,2.7,2.8,0,6.2,0h21.7C31.3,0,34,2.8,34,6.2V27.9z M17,5.5
	C10.2,5.5,4.6,10,4.6,15.5c0,5,4.4,9.1,10.4,9.9c1.4,0.3,1.3,0.8,1,2.8c0,0.3-0.3,1.2,1.1,0.7c3.6-1.9,6.9-4.3,9.7-7.2
	c1.6-1.6,2.6-3.9,2.6-6.2C29.3,10,23.8,5.5,17,5.5z M12.6,17.6v0.9c0,0.1-0.1,0.2-0.2,0.2c0,0,0,0,0,0H8.9c-0.1,0-0.1,0-0.2-0.1
	c0,0-0.1-0.1-0.1-0.2v-5.4c0-0.1,0.1-0.2,0.2-0.2c0,0,0,0,0,0h0.8c0.1,0,0.2,0.1,0.2,0.2v4.3h2.4C12.4,17.3,12.6,17.4,12.6,17.6
	C12.6,17.6,12.6,17.6,12.6,17.6L12.6,17.6z M14.7,13.1v5.4c0,0.1-0.1,0.2-0.2,0.2c0,0,0,0,0,0h-0.9c-0.1,0-0.2-0.1-0.2-0.2l0,0v-5.4
	c0-0.1,0.1-0.2,0.2-0.2h0.9C14.6,12.9,14.7,13,14.7,13.1L14.7,13.1z M20.6,18.5c0,0.1-0.1,0.2-0.2,0.2h0h-0.9c-0.1,0-0.1,0-0.2-0.1
	l-2.4-3.3v3.2c0,0.1-0.1,0.2-0.2,0.2c0,0,0,0,0,0h-0.9c-0.1,0-0.2-0.1-0.2-0.2c0,0,0,0,0,0v-5.4c0-0.1,0.1-0.2,0.2-0.2h0.9
	c0.1,0,0.2,0,0.2,0.1l2.4,3.3v-3.2c0-0.1,0.1-0.2,0.2-0.2l0,0h0.9c0.1,0,0.2,0.1,0.3,0.2c0,0,0,0,0,0L20.6,18.5z M25.5,13.1v0.9
	c0,0.1-0.1,0.2-0.2,0.2c0,0,0,0,0,0h-2.4v0.9h2.4c0.1,0,0.2,0.1,0.2,0.2c0,0,0,0,0,0v0.9c0,0.1-0.1,0.2-0.2,0.2c0,0,0,0,0,0h-2.4
	v0.9h2.4c0.1,0,0.2,0.1,0.2,0.2v0v0.9c0,0.1-0.1,0.2-0.2,0.2h0h-3.5c-0.1,0-0.2-0.1-0.2-0.2v-5.4c0-0.1,0.1-0.2,0.2-0.2l0,0h3.5
	C25.4,12.8,25.5,12.9,25.5,13.1C25.5,13.1,25.5,13.1,25.5,13.1z"/>
</svg>
