<svg xmlns="http://www.w3.org/2000/svg" xmlns:xlink="http://www.w3.org/1999/xlink" width="567" height="96.472" viewBox="0 0 567 96.472">
  <defs>
    <clipPath id="clip-path">
      <rect id="Rectangle_154" data-name="Rectangle 154" width="567" height="96.472" transform="translate(-83.988 -86.224)" fill="rgba(255,255,255,0)"/>
    </clipPath>
  </defs>
  <g id="sp-text-03" transform="translate(83.988 86.224)">
    <g id="Mask_Group_9" data-name="Mask Group 9" clip-path="url(#clip-path)">
      <g id="Group_1076" data-name="Group 1076" transform="translate(-243.685 -281.774)">
        <path id="Path_3245" data-name="Path 3245" d="M296.6,386.98c0-4.725-.68-6.161-2.382-6.161s-2.646,1.361-2.646,9.942.908,9.941,2.646,9.941c1.777,0,2.382-1.512,2.382-6.275h4.876c0,7.258-2.155,10.32-7.333,10.32-4.8,0-7.674-3.137-7.674-13.986s2.949-13.986,7.749-13.986c5.179,0,7.258,3.213,7.258,10.206Z" transform="translate(-38.602 -112.725)" fill="#fff"/>
        <path id="Path_3246" data-name="Path 3246" d="M350.079,394.793h-1.172v10.32h-4.839V378.274h6.464c5.783,0,7.863,2.721,7.863,8.278,0,3.856-1.059,6.426-3.818,7.56l4.272,11h-5.254Zm-1.172-3.553h1.134c2.343,0,3.288-1.7,3.288-4.65s-.945-4.385-3.288-4.385h-1.134Z" transform="translate(-74.431 -113.658)" fill="#fff"/>
        <path id="Path_3247" data-name="Path 3247" d="M405.206,382.167V389.5h5.141v3.78h-5.141v7.938h5.973v3.894H400.368V378.273h10.811v3.894Z" transform="translate(-109.45 -113.657)" fill="#fff"/>
        <path id="Path_3248" data-name="Path 3248" d="M454.491,398.951h-5.217l-1.134,6.161h-4.574l5.821-26.838h5.028l6.086,26.838h-4.877Zm-.643-3.44-1.89-10.017h-.151l-1.89,10.017Z" transform="translate(-136.321 -113.658)" fill="#fff"/>
        <path id="Path_3249" data-name="Path 3249" d="M523.962,405.112H519.88l-.415-17.653-.114-.038-3.893,13.57h-2.986l-3.856-13.57-.113.038-.416,17.653h-4.12l.643-26.838h4.914l4.461,15.46,4.46-15.46h4.876Z" transform="translate(-173.89 -113.658)" fill="#fff"/>
        <path id="Path_3250" data-name="Path 3250" d="M583.424,395.095v10.017h-4.839v-9.979l-5.821-16.859h4.763l3.4,9.9h.113l3.364-9.9h4.574Z" transform="translate(-216.684 -113.657)" fill="#fff"/>
        <path id="Path_3251" data-name="Path 3251" d="M664.988,398.951h-5.216l-1.134,6.161h-4.574l5.821-26.838h5.028L671,405.112h-4.877Zm-.643-3.44-1.89-10.017H662.3l-1.89,10.017Z" transform="translate(-267.254 -113.658)" fill="#fff"/>
        <path id="Path_3252" data-name="Path 3252" d="M726.042,405.112l-5.33-15.2-.378-1.361h-.226v16.557h-4.044V378.274h4.876l5.33,15.158.34,1.323h.227V378.274h4.045v26.838Z" transform="translate(-305.818 -113.658)" fill="#fff"/>
        <path id="Path_3253" data-name="Path 3253" d="M790.18,391.693c0,10.584-2.608,13.419-8.618,13.419h-6.2V378.274h6.2c6.01,0,8.618,2.835,8.618,13.419m-5.065,0c0-7.787-.869-9.488-3.818-9.488h-.945v18.976h.945c2.949,0,3.818-1.7,3.818-9.488" transform="translate(-342.703 -113.658)" fill="#fff"/>
        <path id="Path_3254" data-name="Path 3254" d="M865.69,386.98c0-4.725-.68-6.161-2.382-6.161s-2.646,1.361-2.646,9.942.908,9.941,2.646,9.941c1.777,0,2.382-1.512,2.382-6.275h4.876c0,7.258-2.155,10.32-7.333,10.32-4.8,0-7.673-3.137-7.673-13.986s2.949-13.986,7.749-13.986c5.179,0,7.258,3.213,7.258,10.206Z" transform="translate(-392.587 -112.725)" fill="#fff"/>
        <path id="Path_3255" data-name="Path 3255" d="M920.684,398.951h-5.217l-1.134,6.161H909.76l5.821-26.838h5.028l6.086,26.838h-4.877Zm-.643-3.44-1.89-10.017H918l-1.89,10.017Z" transform="translate(-426.301 -113.658)" fill="#fff"/>
        <path id="Path_3256" data-name="Path 3256" d="M975.7,404.684c-5.065,0-7.144-2.646-7.144-8.089v-1.134h4.725v1.625c0,2.835.907,3.818,2.344,3.818,1.4,0,2.23-.87,2.23-2.8,0-6.161-9-5.67-9-14.629.038-4.385,2.155-6.8,6.842-6.8,4.725,0,6.918,2.117,6.918,7.749v1.058h-4.612v-1.247c0-2.873-.6-3.78-2.041-3.78-1.285,0-2.041.907-2.041,2.76,0,5.745,8.959,5.708,8.959,14.591,0,4.423-2.193,6.88-7.182,6.88" transform="translate(-462.875 -112.662)" fill="#fff"/>
        <path id="Path_3257" data-name="Path 3257" d="M1031.988,386.98c0-4.725-.68-6.161-2.382-6.161s-2.646,1.361-2.646,9.942.908,9.941,2.646,9.941c1.777,0,2.382-1.512,2.382-6.275h4.876c0,7.258-2.155,10.32-7.333,10.32-4.8,0-7.674-3.137-7.674-13.986s2.949-13.986,7.749-13.986c5.179,0,7.258,3.213,7.258,10.206Z" transform="translate(-496.028 -112.725)" fill="#fff"/>
        <path id="Path_3258" data-name="Path 3258" d="M1086.982,398.951h-5.217l-1.134,6.161h-4.574l5.821-26.838h5.028l6.086,26.838h-4.877Zm-.643-3.44-1.89-10.017h-.151l-1.89,10.017Z" transform="translate(-529.742 -113.658)" fill="#fff"/>
        <path id="Path_3259" data-name="Path 3259" d="M1152.374,391.693c0,10.584-2.608,13.419-8.618,13.419h-6.2V378.274h6.2c6.01,0,8.618,2.835,8.618,13.419m-5.065,0c0-7.787-.869-9.488-3.818-9.488h-.945v18.976h.945c2.949,0,3.818-1.7,3.818-9.488" transform="translate(-567.995 -113.658)" fill="#fff"/>
        <rect id="Rectangle_268" data-name="Rectangle 268" width="4.839" height="26.838" transform="translate(591.484 264.616)" fill="#fff"/>
        <path id="Path_3260" data-name="Path 3260" d="M1238.933,405.112l-5.33-15.2-.378-1.361H1233v16.557h-4.044V378.274h4.876l5.33,15.158.34,1.323h.227V378.274h4.045v26.838Z" transform="translate(-624.846 -113.658)" fill="#fff"/>
        <path id="Path_3261" data-name="Path 3261" d="M1301.762,390.042v5.216c0,6.5-2.873,9.488-7.447,9.488-4.725,0-7.863-3.364-7.863-13.986,0-10.4,2.949-13.986,7.9-13.986,4.423,0,7.3,2.721,7.3,9.753h-4.876c0-4.2-.68-5.708-2.419-5.708s-2.8,1.474-2.8,9.941c0,8.165,1.021,9.942,3.062,9.942,1.776,0,2.684-1.437,2.684-6.086V393.9h-2.571v-3.856Z" transform="translate(-660.611 -112.725)" fill="#fff"/>
        <path id="Path_3262" data-name="Path 3262" d="M258.535,218.346v19.232h-3.921v-2.041H233.931v2.041H230.01v-19l-1.637.68-1.939.68-2.025-3.946a36.6,36.6,0,0,0,13.358-6.94H224.753v-3.674h17.279V201.79l-6.722.181-6.851.091-1.379-4.082q3.188-.09,5.3-.091,8.229-.136,11.936-.136a54.245,54.245,0,0,0,14.09-1.724l1.81,3.629q-5.429,1-12.927,1.86-.517.045-1.293.136v3.719h17.753v3.674h-13.53q4.438,4.173,13.875,6.758l-1.852,4.037-1.853-.68a6.358,6.358,0,0,1-1.853-.816m-26.069-1h9.566v-8.164a25.453,25.453,0,0,1-8.1,7.348Zm22.148,3.719H233.931v3.356h20.683Zm-20.683,10.8h20.683v-3.9H233.931ZM246,209.138v8.21h10.385A28.581,28.581,0,0,1,246,209.138" transform="translate(0 -0.299)" fill="#fff"/>
        <path id="Path_3263" data-name="Path 3263" d="M349.809,201.038V197.41h18.528v3.629H363.21v4.49h5.085v31.75h-3.232v-2.495h-10.9v2.495h-3.275v-31.75h5v-4.49Zm4.352,22.543h10.9v-3.946h-1.724a3.287,3.287,0,0,1-2.176-.635,3.49,3.49,0,0,1-.754-2.676v-7.348h-1.723v.544a24.84,24.84,0,0,1-2.5,11.793l-2.026-2.041Zm0-4.808a22.575,22.575,0,0,0,1.68-6.713q.086-2.494.129-3.084h-1.81Zm0,12.564h10.9v-4.309h-10.9Zm6.248-30.3h-1.724v4.49h1.724Zm4.654,7.938H363.21v6.4q0,.908.775.907h1.077Zm4.438-6.441V199h8.231l-.646-1.179a10.866,10.866,0,0,0-.948-1.542l3.835-.726a17.73,17.73,0,0,1,.991,1.724l.819,1.724h7.713v3.538Zm19.994,22.77v3.538h-7.412v3.447a5.8,5.8,0,0,1-.862,3.629,3.67,3.67,0,0,1-2.973,1.043h-4.956l-.9-3.855,4.568.227q1.292,0,1.293-1.406v-3.084h-8.532V225.3h8.532V224.4q.517-.362.819-.544a16.006,16.006,0,0,0,3.576-3.13H370.837v-3.538h16.805v2.858a41.14,41.14,0,0,1-5.429,5.261Zm-18.7-20.456h16.935v10.069H370.793Zm13.272,3.22h-9.609v3.674h9.609Z" transform="translate(-78.002 0)" fill="#fff"/>
        <path id="Path_3264" data-name="Path 3264" d="M480.882,219.173q0,11.884-2.327,18.642l-3.231-3.22q1.938-5.9,1.939-16.057V196.63h3.62Zm2.24-19.821h3.49v33.7h-3.49Zm5.818-2.721h3.706v40.777h-3.706Zm14.651,35.107a28.116,28.116,0,0,1-8.144,6.169l-2.628-3.13a25.662,25.662,0,0,0,7.5-4.944l.56-.59Zm-8.532-26.9h6.593l.474-1.905a6.863,6.863,0,0,0,.215-1.066q.042-.43.086-.658H494.2v-3.583h20.856v3.583h-8.7l-.776,3.629h7.842v23.9H495.058Zm14.608,3.447h-10.9v3.266h10.9Zm-10.9,10.069h10.9v-3.583h-10.9Zm0,6.94h10.9v-3.765h-10.9Zm14,12.519a46.95,46.95,0,0,0-6.851-5.125q-.561-.318-1.465-.862l2.37-2.54a48.6,48.6,0,0,1,8.187,5.262Z" transform="translate(-156.074 -0.672)" fill="#fff"/>
        <path id="Path_3265" data-name="Path 3265" d="M606.669,217.094l-2.887-2.495q-.56-.453-2.5-1.905c-.144-.12-.331-.272-.56-.454l2.672-3.13,3.1,1.95a27.958,27.958,0,0,1,2.973,2.359Zm3.576,6.259a70.2,70.2,0,0,1-5.99,14.7l-3.016-3.674q2.628-4.308,5.516-13.426ZM608.264,205.8a42.761,42.761,0,0,0-5.989-5.08l2.715-3.13,3.016,2.041a34.578,34.578,0,0,1,3.145,2.449Zm28.008,27.124v.59a6,6,0,0,1-.819,3.493q-.819,1.133-4.094,1.134h-3.878l-.991-4.082,4.439.227a1.231,1.231,0,0,0,1.379-1.406v-2.086H617.226v7.756h-3.878V219.725h-3.49v-9.843h3.231V198.044h23.484v11.838h3.189v9.843h-3.491Zm-.431-19.368H613.736v2.313h22.105Zm-3.1-11.838H616.925v8.164h4.309v-5.715h11.505Zm-.431,17.69H617.226v2.4h15.082Zm-15.082,8.119h15.082v-2.449H617.226Zm8.058-17.644h7.455v-2.858h-7.455Z" transform="translate(-234.075 -1.269)" fill="#fff"/>
        <path id="Path_3266" data-name="Path 3266" d="M781.989,216.883q-.56-.5-.905-.816a49.032,49.032,0,0,0-4.223-3.493l-1.034-.726,2.5-3.266a17.608,17.608,0,0,1,3.318,2.086l3.188,2.495Zm2.585,6.169a66.663,66.663,0,0,1-4.7,14.923l-3.576-3.266a67.481,67.481,0,0,0,4.74-13.834Zm-.9-17.236a35.721,35.721,0,0,0-5.559-4.4q-.431-.272-1.163-.771l2.8-3.175,3.232,2.132a37.784,37.784,0,0,1,3.49,2.631Zm3.705-8.028h25.466v12.337H807.67v2.4h6.55V215.7h-6.55V218.2h7.368v3.266H807.8a26.744,26.744,0,0,0,7.584,4.49l-1.724,3.22-2.025-1.089a17.411,17.411,0,0,1-1.81-1.134l-.387-.272-1.508,1.633-1.767,1.633-2.672-2.721q.387-.272.6-.408a14.519,14.519,0,0,0,2.2-1.86l.387-.408-1.293-1.315-1.637-1.769h-7.325l-1.724,1.678-1.637,1.406a1.858,1.858,0,0,0,.258.181,10.9,10.9,0,0,1,1.25,1l1.594,1.5-2.542,2.54a16.415,16.415,0,0,0-3.275-3.175l-1.422.952a15.523,15.523,0,0,1-1.853.953l-2.284-3.084a22.866,22.866,0,0,0,6.119-3.13q.388-.317,1.034-.816H785V218.2h7.326V215.7h-6.464v-3.175h6.464v-2.4h-4.956Zm8.231,34.835a49.032,49.032,0,0,1-8.963,4.627l-1.249-3.447a38.6,38.6,0,0,0,8.015-3.719l1.335-.816Zm-4.482-30.072h18.012v-1.769H791.124Zm18.012,2.631H791.124v2.041h18.012ZM801.9,222.508v10.886a5.4,5.4,0,0,1-.948,3.629q-.948,1.043-3.705,1.043h-2.5l-.861-3.855,2.973.136a1.25,1.25,0,0,0,1.422-1.406V222.508Zm2.111-12.383h-8.014v2.4h8.014Zm0,5.579h-8.014V218.2h8.014Zm1.508,14.2,4.611,2a41.015,41.015,0,0,1,4.352,2.223l-2.025,3.493a63.264,63.264,0,0,0-7.972-4.4q-.3-.136-.733-.363Z" transform="translate(-342.993 -1.194)" fill="#fff"/>
        <path id="Path_3267" data-name="Path 3267" d="M921.18,213.421v-5.715H925.4v5.715h12.712v16.011a6.143,6.143,0,0,1-.8,3.47q-.8,1.157-3.253,1.157h-4.74l-.861-3.991,4.179.227q1.508,0,1.508-1.451v-11.43H925.4v19.867H921.18V217.412h-8.7V234.6h-4.008v-16.42q-.431.408-.689.68a37.123,37.123,0,0,1-3.878,3.311l-3.016-3.4A56.433,56.433,0,0,0,913.9,205.257H900.885v-4.128h14.952q.776-1.814,1.077-2.631l.991-2.948,4.007.816-.862,2.495q-.259.68-.646,1.542l-.345.726h20.511v4.128H918.38a58.575,58.575,0,0,1-5.818,8.164Z" transform="translate(-420.781 0)" fill="#fff"/>
        <path id="Path_3268" data-name="Path 3268" d="M1026.512,214.267h3.059V200.251h4.654a10.6,10.6,0,0,0,.56-2.132l.345-2.449,3.792.318q-.129,1.135-.387,2.359l-.474,1.905h5.99v31.841a5.987,5.987,0,0,1-.819,3.515q-.819,1.111-3.275,1.111h-3.1l-.948-4.082,2.887.181q1.508,0,1.508-1.406V217.9h-7.024a78.364,78.364,0,0,1-.56,9.752,30.757,30.757,0,0,1-2.93,9.389l-3.275-2.585a26.774,26.774,0,0,0,2.306-6.826,70.48,70.48,0,0,0,.754-9.729h-3.059Zm6.765,0h7.024V203.834h-7.024Zm2.715-1.678-.776-3.4a20.731,20.731,0,0,0-.948-2.948l3.1-.726q.215.636.345,1,.559,1.543.689,2.041l.862,3.175Zm.129,15.785a46.04,46.04,0,0,0-1.853-7.03l3.016-.953a45.3,45.3,0,0,1,1.939,6.259q.043.272.172.771Zm25.251-21.772a3.256,3.256,0,0,0,.388,2,2.244,2.244,0,0,0,1.594.408h2.241v3.81h-3.533a4.723,4.723,0,0,1-3.49-1.134q-1.121-1.133-1.12-4.218v-6.8h-4.438v1.451q0,7.984-5.6,12.473l-2.973-3.266a12.5,12.5,0,0,0,3.727-4.422q1.012-2.245,1.013-7.643v-2.4h12.195Zm2.37,12.065a28.372,28.372,0,0,1-5.257,10.75,29.512,29.512,0,0,0,6.765,3.9,5.383,5.383,0,0,1,.689.317l-2.111,3.674a39.6,39.6,0,0,1-8.144-5.125,28.917,28.917,0,0,1-9.178,5.171l-1.681-3.629q5.817-1.951,8.144-4.173a39.5,39.5,0,0,1-5.3-8.391l3.188-1.5a35.472,35.472,0,0,0,4.783,7.3,20.432,20.432,0,0,0,4.18-7.983h-13.53v-3.765h17.451Z" transform="translate(-498.923 -0.075)" fill="#fff"/>
        <path id="Path_3269" data-name="Path 3269" d="M1151.8,213.962a59.706,59.706,0,0,0,4.74-8.55,67.383,67.383,0,0,0,3.1-9.5l3.663,1.134q-.13.454-.215.771a52.349,52.349,0,0,1-2.585,8.074V237.5h-3.749V213.645l-1.336,2.495q-.388.68-1.293,1.95-.129.182-.3.454Zm12.195-14.741h3.835v9.752h4.611v3.719h-4.611v13.517l2.2-1.043q.9-.408,1.982-1,.3-.181.819-.454v4.218q-.734.363-1.25.635-2.285,1.18-3.533,1.724l-5.171,2.223-1.465-3.855,2.585-1.089Zm16.934,31.025a32.687,32.687,0,0,1-7.282,7.212l-3.059-2.676a25.542,25.542,0,0,0,7.368-6.259Zm-6.636-26.035h5.171l.646-1.95.388-1.542h-8.4v-3.447h19.391v3.447h-7.153l-.431,1.678-.517,1.814h6.248v23.813h-15.34Zm11.591,3.311h-7.843v3.4h7.843Zm-7.843,10.16h7.843v-3.719h-7.843Zm0,7.03h7.843v-3.991h-7.843Zm10.729,12.7-3.016-3.447a31.358,31.358,0,0,0-3.62-3.4l2.715-1.95,1.077.907a47.523,47.523,0,0,1,5.516,5.216Z" transform="translate(-576.853 -0.224)" fill="#fff"/>
        <path id="Path_3270" data-name="Path 3270" d="M1286.49,222.441q-.3.908-.474,1.5a90.418,90.418,0,0,1-5.343,13.607l-3.361-3.311a62.83,62.83,0,0,0,5.515-14.152Zm-1.681-6.35-3.533-2.631q-.69-.5-2.413-1.588-.475-.272-1.293-.816l2.37-3.4a48.416,48.416,0,0,1,7.239,4.49Zm1.12-11.43q-.646-.5-1.034-.816a43.223,43.223,0,0,0-5.99-4.082l2.413-3.493,3.749,2.223a29.926,29.926,0,0,1,3.361,2.177Zm2.758.68h27.75v3.946H1304.5v8.437h10.471v3.946H1304.5v9.979h12.41v4.037h-29.473v-4.037h12.84V221.67h-10.6v-3.946h10.6v-8.437h-11.591Zm15.3-.272a54.059,54.059,0,0,0-6.851-4.853q-.259-.136-.689-.408l2.413-3.4a71.376,71.376,0,0,1,7.584,4.763Z" transform="translate(-654.925 -0.448)" fill="#fff"/>
      </g>
    </g>
  </g>
</svg>
