<svg xmlns="http://www.w3.org/2000/svg" xmlns:xlink="http://www.w3.org/1999/xlink" width="567" height="104.994" viewBox="0 0 567 104.994">
  <defs>
    <clipPath id="clip-path">
      <rect id="Rectangle_154" data-name="Rectangle 154" width="567" height="104.994" transform="translate(-83.988 -86.224)" fill="rgba(255,255,255,0)"/>
    </clipPath>
  </defs>
  <g id="sp-text-02" transform="translate(83.988 86.224)">
    <g id="Mask_Group_9" data-name="Mask Group 9" clip-path="url(#clip-path)">
      <g id="Group_1078" data-name="Group 1078" transform="translate(-307.178 -278.813)">
        <path id="Path_3271" data-name="Path 3271" d="M301.333,379.039v7.518h5.27v3.875h-5.27v8.138h6.123v3.991H296.373V375.048h11.083v3.991Z" transform="translate(-4.11 -105.6)" fill="#fff"/>
        <path id="Path_3272" data-name="Path 3272" d="M349.155,396.245h-5.348l-1.163,6.317h-4.689l5.968-27.514h5.153l6.239,27.514h-5Zm-.658-3.527-1.938-10.269H346.4l-1.937,10.269Z" transform="translate(-28.176 -105.599)" fill="#fff"/>
        <path id="Path_3273" data-name="Path 3273" d="M406.326,379.039H402.1v23.523h-5V379.039h-4.224v-3.991h13.447Z" transform="translate(-59.964 -105.6)" fill="#fff"/>
        <path id="Path_3274" data-name="Path 3274" d="M440.626,430.933a2.674,2.674,0,1,1,2.674,2.635,2.512,2.512,0,0,1-2.674-2.635" transform="translate(-87.597 -136.374)" fill="#fff"/>
        <rect id="Rectangle_269" data-name="Rectangle 269" width="4.96" height="27.514" transform="translate(376.863 269.448)" fill="#fff"/>
        <path id="Path_3275" data-name="Path 3275" d="M540,402.562l-5.464-15.578-.388-1.4h-.232v16.974h-4.146V375.048h5l5.464,15.539.349,1.356h.232v-16.9h4.146v27.514Z" transform="translate(-139.192 -105.6)" fill="#fff"/>
        <path id="Path_3276" data-name="Path 3276" d="M601.359,388.8c0,10.851-2.674,13.757-8.836,13.757h-6.355V375.048h6.355c6.162,0,8.836,2.906,8.836,13.757m-5.193,0c0-7.983-.891-9.727-3.914-9.727h-.969v19.454h.969c3.023,0,3.914-1.744,3.914-9.727" transform="translate(-171.831 -105.6)" fill="#fff"/>
        <path id="Path_3277" data-name="Path 3277" d="M640.723,396.478v-21.43h4.96v20.19c0,2.674.814,3.8,2.558,3.8s2.519-1.124,2.519-3.8v-20.19h4.961v21.43c0,4.806-3.177,6.7-7.479,6.7-4.186,0-7.518-1.9-7.518-6.7" transform="translate(-203.405 -105.6)" fill="#fff"/>
        <path id="Path_3278" data-name="Path 3278" d="M706.952,398.57v3.992H696.566V375.047h4.96V398.57Z" transform="translate(-235.724 -105.6)" fill="#fff"/>
        <path id="Path_3279" data-name="Path 3279" d="M751.636,387.269v5.348c0,6.666-2.945,9.727-7.634,9.727-4.844,0-8.061-3.449-8.061-14.338,0-10.657,3.023-14.339,8.1-14.339,4.534,0,7.479,2.79,7.479,10h-5c0-4.3-.7-5.852-2.479-5.852s-2.868,1.511-2.868,10.192c0,8.371,1.047,10.192,3.139,10.192,1.821,0,2.752-1.473,2.752-6.239v-.736h-2.635v-3.953Z" transform="translate(-258.513 -104.801)" fill="#fff"/>
        <path id="Path_3280" data-name="Path 3280" d="M796.56,379.039v7.518h5.27v3.875h-5.27v8.138h6.122v3.991H791.6V375.048h11.082v3.991Z" transform="translate(-290.726 -105.6)" fill="#fff"/>
        <path id="Path_3281" data-name="Path 3281" d="M835.206,430.933a2.674,2.674,0,1,1,2.674,2.635,2.512,2.512,0,0,1-2.674-2.635" transform="translate(-315.963 -136.374)" fill="#fff"/>
        <path id="Path_3282" data-name="Path 3282" d="M897.948,391.982h-1.2v10.58h-4.96V375.048h6.627c5.929,0,8.061,2.79,8.061,8.487,0,3.953-1.085,6.588-3.915,7.75l4.379,11.277h-5.386Zm-1.2-3.642h1.163c2.4,0,3.372-1.744,3.372-4.766s-.969-4.5-3.372-4.5h-1.163Z" transform="translate(-348.709 -105.6)" fill="#fff"/>
        <path id="Path_3283" data-name="Path 3283" d="M950.383,379.039v7.518h5.27v3.875h-5.27v8.138h6.123v3.991H945.423V375.048h11.083v3.991Z" transform="translate(-379.752 -105.6)" fill="#fff"/>
        <path id="Path_3284" data-name="Path 3284" d="M998.587,384.13c0-4.844-.7-6.317-2.442-6.317s-2.712,1.4-2.712,10.192.931,10.192,2.712,10.192c1.821,0,2.442-1.551,2.442-6.433h5c0,7.44-2.209,10.58-7.518,10.58-4.922,0-7.866-3.217-7.866-14.338s3.022-14.339,7.943-14.339c5.309,0,7.441,3.294,7.441,10.463Z" transform="translate(-404.51 -104.801)" fill="#fff"/>
        <path id="Path_3285" data-name="Path 3285" d="M1058.029,375.047v27.514h-4.96V390.548h-5.076v12.013h-4.961V375.047h4.961V386.44h5.076V375.047Z" transform="translate(-436.243 -105.6)" fill="#fff"/>
        <path id="Path_3286" data-name="Path 3286" d="M1107.5,396.245h-5.348l-1.163,6.317H1096.3l5.968-27.514h5.153l6.24,27.514h-5Zm-.659-3.527-1.938-10.269h-.155l-1.937,10.269Z" transform="translate(-467.073 -105.599)" fill="#fff"/>
        <path id="Path_3287" data-name="Path 3287" d="M1161.34,391.982h-1.2v10.58h-4.96V375.048h6.627c5.929,0,8.061,2.79,8.061,8.487,0,3.953-1.085,6.588-3.915,7.75l4.379,11.277h-5.386Zm-1.2-3.642h1.163c2.4,0,3.372-1.744,3.372-4.766s-.969-4.5-3.372-4.5h-1.163Z" transform="translate(-501.15 -105.6)" fill="#fff"/>
        <path id="Path_3288" data-name="Path 3288" d="M1222.393,387.269v5.348c0,6.666-2.944,9.727-7.634,9.727-4.844,0-8.061-3.449-8.061-14.338,0-10.657,3.023-14.339,8.1-14.339,4.533,0,7.479,2.79,7.479,10h-5c0-4.3-.7-5.852-2.479-5.852s-2.868,1.511-2.868,10.192c0,8.371,1.046,10.192,3.139,10.192,1.821,0,2.752-1.473,2.752-6.239v-.736h-2.634v-3.953Z" transform="translate(-530.966 -104.801)" fill="#fff"/>
        <path id="Path_3289" data-name="Path 3289" d="M1267.317,379.039v7.518h5.271v3.875h-5.271v8.138h6.123v3.991h-11.083V375.048h11.083v3.991Z" transform="translate(-563.179 -105.6)" fill="#fff"/>
        <path id="Path_3290" data-name="Path 3290" d="M1305.964,430.933a2.674,2.674,0,1,1,2.674,2.635,2.512,2.512,0,0,1-2.674-2.635" transform="translate(-588.417 -136.374)" fill="#fff"/>
        <path id="Path_3291" data-name="Path 3291" d="M313.379,213.06H333.5v3.791H289.272V213.06h19.737v-2.477H292.441v-3.538h16.567v-2.426H289.272V201.08h19.737v-2.224H292.441v-3.538h16.567v-2.73h4.37v2.73H328.89v5.763h4.61v3.538h-4.61v5.965H313.379Zm14.934,11.576v8.9H333.5v3.741H289.272v-3.741h4.8v-8.9ZM299.5,219.379l-.96,1.011a45.945,45.945,0,0,1-6.531,5.51l-2.641-3.437a26.747,26.747,0,0,0,6.771-5.358Zm-1.1,14.154h5.859v-5.156H298.4Zm5.715-9.857v-2.932a12.336,12.336,0,0,0-.24-2.932l4.514-.051.288,2.73q.144,1.516.144,3.033Zm10.037,4.7h-5.811v5.156h5.811Zm-.768-27.3h11.429v-2.224H313.379Zm0,5.965h11.429v-2.426H313.379Zm1.488,16.934L314.579,221q-.241-2.021-.432-3.083l3.938-.253a21.822,21.822,0,0,1,1.056,5.156,3.9,3.9,0,0,0,.1.809Zm9.125,4.4h-5.81v5.156h5.81Zm6.435-2.022a49.371,49.371,0,0,0-6.242-6.116q-.241-.2-.625-.556l2.881-2.477q1.392,1.012,3.458,2.831l3.41,3.185Z" fill="#fff"/>
        <path id="Path_3292" data-name="Path 3292" d="M419.414,204.315q-.336,4.6-.336,6.622a26.357,26.357,0,0,1-.72,6.116L414.9,215.79a22.381,22.381,0,0,0,.768-5.56q.144-1.668.192-3.311t.1-2.755Zm1.345-11.727h4.466v46.505h-4.466Zm9.508,16.479H441.12v-3.134H430.939v-3.589H441.12v-2.578H428.826v-3.69H441.12v-3.488h4.466v3.488h12.821v3.69H445.586v2.578h11.381v3.589H445.586v3.134h13.542v3.64H428.106v-2.123l-1.009.3-.72-3.791a29.077,29.077,0,0,0-.864-3.336l2.977-.859q.24.709.384,1.112a23.574,23.574,0,0,1,.72,2.275Zm26.844,23.91v.657a6.847,6.847,0,0,1-.888,3.867q-.888,1.289-3.626,1.289h-5.042L446.5,234.8l4.466.253q1.681,0,1.681-1.618V231.41H434.781v7.684h-4.466v-23.96h26.8ZM434.781,221.4h17.864v-2.679H434.781Zm0,6.521h17.864v-3.033H434.781Z" transform="translate(-72.708)" fill="#fff"/>
        <path id="Path_3293" data-name="Path 3293" d="M567.156,226H584.3v4.448H565.908v2.982q0,2.931-1.081,4.069t-4.346,1.137h-6.867l-.961-4.6,6.819.152a1.393,1.393,0,0,0,1.585-1.567v-2.174H540.072V226h20.985v-1.87l4.178-1.112,5.475-1.719H543.722v-4.347H579.21v3.892a63.8,63.8,0,0,1-10.373,4.549q-.672.253-1.681.607M540.6,200.726v-4.448h18.344l-.672-1.365-.96-1.668,5.282-.657,1.008,1.921.816,1.769h19.353v4.448Zm4.706,2.477h33.951v11.323H545.307Zm29.1,3.842H550.157v3.589h24.251Z" transform="translate(-145.152)" fill="#fff"/>
        <path id="Path_3294" data-name="Path 3294" d="M680.821,220.958q.384.354.624.607a71.818,71.818,0,0,0,6.531,5.257q.335.253.817.657l1.584-1.112a21.049,21.049,0,0,0,5.955-6.066H673.857v-4.2H701.95V220a35.47,35.47,0,0,1-8.836,9.807,51.444,51.444,0,0,0,17,4.9l-2.065,4.752a56.5,56.5,0,0,1-19.209-6.976q-7.78,4.448-19.737,6.875l-2.833-4.752a63.546,63.546,0,0,0,18.345-4.9q-.385-.3-.673-.506a57.356,57.356,0,0,1-6.531-5.459q-.241-.253-.624-.607Zm-13.783-.505V208.372h30.494a32.515,32.515,0,0,0,3.985-8.593l4.466.96q-.288.708-.432,1.163a53.318,53.318,0,0,1-2.449,5.257q-.241.455-.624,1.213h6.915v12.081h-4.466v-7.532H671.553v7.532Zm23.1-20.826q-11.669,0-20.6.607l-1.393-4.7q4.13-.1,6.771-.1,10.276-.152,13.974-.152a78.608,78.608,0,0,0,16.568-1.971l2.209,4.2q-1.249.253-2.449.505a73.988,73.988,0,0,1-15.079,1.618m-15.9,8.644-1.248-3.437a29.574,29.574,0,0,0-1.537-3.235l3.986-1.011a26.015,26.015,0,0,1,3.121,6.521Zm13.158,0q-.193-.607-.288-1.011a35.943,35.943,0,0,0-2.353-5.965l4.034-1.011q.335.658.528,1.062a30.111,30.111,0,0,1,2.016,5.055q.1.253.288.657Z" transform="translate(-218.19 -0.417)" fill="#fff"/>
        <path id="Path_3295" data-name="Path 3295" d="M884.889,217.357v4.3H865.68v5.105h17.432v4.3H865.68v8.037h-4.754v-8.037h-17.48v-4.3h17.48v-5.105H841.718v-4.3h11.765a9.6,9.6,0,0,1-.337-.96,24.465,24.465,0,0,0-2.5-5.257h-8.932v-4.3h19.209v-5.055H844.263v-4.3h16.664v-4.9h4.754v4.9H882.3v4.3H865.68v5.055h19.161v4.3H875.62l-.96,2.881a18.118,18.118,0,0,1-1.441,3.336Zm-16.615,0a15.165,15.165,0,0,0,1.585-3.437l1.008-2.78H855.787a19.387,19.387,0,0,1,1.393,2.932l1.249,3.286Z" transform="translate(-319.732)" fill="#fff"/>
        <path id="Path_3296" data-name="Path 3296" d="M981.836,218.57l-2.257,4.2a22.83,22.83,0,0,0-3.169-3.842l-.384-.4v20.574H971.8V220.087l-1.969,2.679q-.769,1.012-1.728,2.073l-.384.4-1.969-4.954a50.107,50.107,0,0,0,10.373-15.266h-9.6v-4.3h6q-.193-.707-.288-1.163a26.069,26.069,0,0,0-2.353-6.218l4.226-.758a39.787,39.787,0,0,1,2.881,8.138h3.842v3.993q-1.2,2.831-2.161,4.6l-2.209,4.145c.32.27.577.473.768.607a33.437,33.437,0,0,1,4.61,4.5m28.141-20.675H981.4v-3.943h28.573Zm-23.243,39.125v2.073h-4.178V215.436h26.22v23.657H1004.6v-2.073Zm-2.546-36.4h23.1v11.93h-23.1Zm9.268,18.6h-6.723v5h6.723Zm0,8.593h-6.723v5.409h6.723Zm9.508-23.455H988.512v4.5h14.454Zm1.633,14.861h-7.155v5h7.155Zm0,8.593h-7.155v5.409h7.155Z" transform="translate(-391.516)" fill="#fff"/>
        <path id="Path_3297" data-name="Path 3297" d="M1135.862,198.755v11.93h-4.61V202.8h-32.318v7.886h-4.706v-11.93h8.211l-1.2-2.275q-.769-1.263-1.488-2.224l4.37-1.264a28.622,28.622,0,0,1,3.026,5.763h5.619v-6.167h4.754v6.167h5.427a18.2,18.2,0,0,0,2.785-5.156,5.612,5.612,0,0,1,.288-.708l4.418,1.314-1.249,2.426-1.2,2.123Zm-1.873,20.017v20.321h-4.418v-2.275H1101v2.275h-4.37V218.772Zm-21.034,3.842H1101V226h11.958Zm0,6.875H1101v3.538h11.958Zm15.608-13.244h-26.8V205.529h26.8Zm-4.37-7.026h-18.056v3.336h18.056Zm5.378,13.4h-12.149V226h12.149Zm0,6.875h-12.149v3.538h12.149Z" transform="translate(-465.873)" fill="#fff"/>
        <path id="Path_3298" data-name="Path 3298" d="M1233.213,202.923H1216.55v-5.055h44.228v5.055H1238.5v39.226h-5.283Zm21.37,22.444a100.423,100.423,0,0,0-13.974-11.525l2.641-3.741a72.427,72.427,0,0,1,14.646,11.272Z" transform="translate(-536.668 -3.056)" fill="#fff"/>
      </g>
    </g>
  </g>
</svg>
